PathFileType	4	(X/Y/Z)	C:/Users/beibeiliu/ov580/test_trc/User3\sequence.7_training_dense_right.trc
DataRate	CameraRate	NumFrames	NumMarkers	Units	OrigDataRate	OrigDataStartFrame	OrigNumFrames
120	120	8	19	mm	120	51	200
Frame#	Time	ThumbCMC			ThumbMCP			ThumbIP			ThumbTip			IndexMCP			IndexPIP			IndexTip			MiddleMCP			MiddlePIP			MiddleTip			RingMCP			RingPIP			RingTip			PinkyMCP			PinkyPIP			PinkyTip			BackHand1			BackHand2			BackHand3	
		X0	Y0	Z0	X1	Y1	Z1	X2	Y2	Z2	X3	Y3	Z3	X4	Y4	Z4	X5	Y5	Z5	X6	Y6	Z6	X7	Y7	Z7	X8	Y8	Z8	X9	Y9	Z9	X10	Y10	Z10	X11	Y11	Z11	X12	Y12	Z12	X13	Y13	Z13	X14	Y14	Z14	X15	Y15	Z15	X16	Y16	Z16	X17	Y17	Z17	X18	Y18	Z18	
50	0.416667	22.628	-7.7986	-6.3374	3.98837	-17.7834	-29.0851	-7.61805	-24.3159	-52.283	-13.4478	-31.8814	-76.9181	35.2243	21.6093	-74.3288	23.91	22.7532	-101.477	15.8744	13.569	-124.87	67.2534	17.4285	-83.0915	65.5099	15.4185	-110.339	65.0251	-2.10815	-140.768	81.2783	-11.8309	-79.0983	72.5551	-31.8817	-98.2853	58.0863	-63.8041	-91.802	94.2122	-23.4586	-66.6653	82.2543	-43.1454	-81.8533	68.1913	-61.1956	-62.5405	85.3148	6.70506	-26.4807	87.8522	2.90981	3.99823	57.691	12.9031	-6.37058	
51	0.425	22.8905	-8.96449	-3.21785	8.02127	-17.5498	-32.1454	-4.15762	-25.7718	-53.6037	-10.7006	-33.3082	-77.2164	39.6778	18.9115	-73.228	28.6747	19.9412	-100.074	14.9742	11.2671	-125.442	69.4149	14.2751	-79.0974	67.9866	13.9146	-110.245	61.0834	-2.7901	-143.695	83.5345	-13.7975	-78.0908	69.9108	-35.873	-99.9387	58.3733	-65.3044	-92.3725	95.1938	-25.4426	-68.5645	87.5337	-47.2652	-79.9808	64.3982	-61.9051	-60.7425	87.5656	5.34742	-26.8298	92.4833	-0.385421	4.82141	57.3912	14.472	-7.70463	
52	0.433333	24.1351	-6.90519	-5.85638	6.49675	-17.8046	-31.3504	-2.88539	-25.1884	-56.6838	-11.4436	-33.3364	-76.2852	39.822	19.7606	-78.4001	25.7347	21.2968	-104.108	19.5267	8.82079	-130.581	72.6121	15.8236	-83.0817	68.0089	14.6775	-111.794	66.4299	-3.71595	-142.876	80.8357	-12.652	-81.575	72.8739	-34.6341	-99.4016	58.6518	-64.5514	-93.142	95.9665	-24.1608	-67.7035	84.8986	-45.8211	-81.6585	65.6159	-60.2007	-63.6793	90.7072	5.31278	-26.0851	88.5195	0.627496	6.78733	59.7047	12.8708	-9.44745	
53	0.441667	25.0325	-7.22485	-5.75872	5.62621	-17.1069	-30.4544	-4.92458	-25.0349	-53.8522	-10.959	-33.2161	-80.3709	40.7713	19.8059	-75.1439	31.4361	21.7247	-101.858	22.6588	10.9466	-126.906	70.0274	16.5825	-81.5157	71.8109	13.7976	-115.764	68.5268	-2.84665	-142.454	83.455	-13.5137	-82.5669	75.5848	-34.4756	-99.4298	55.5923	-62.3163	-93.7994	98.6779	-25.0629	-66.9024	89.2496	-47.399	-80.4663	66.1497	-59.6275	-66.3547	90.5683	6.06474	-23.7653	89.6327	1.98468	5.13954	57.3812	16.1674	-9.81464	
54	0.45	28.4891	-9.09104	-6.01782	10.6698	-18.3328	-29.4153	-3.69184	-24.5121	-56.9865	-9.59852	-33.52	-75.5103	42.0053	20.0683	-79.3648	29.2449	20.9086	-106.394	21.8036	11.3	-127.548	72.1237	15.1727	-83.8807	71.6413	11.7897	-116.458	64.9727	-2.83992	-142.064	80.6976	-14.1031	-82.4671	76.777	-36.5555	-99.1066	59.5507	-62.434	-94.7774	97.3978	-26.9983	-70.6496	84.7083	-48.773	-80.576	64.4035	-62.8999	-60.247	88.2496	4.88667	-27.2601	91.6112	-0.338062	5.13614	58.52	15.7293	-12.6075	
55	0.458333	30.7665	-9.56338	-7.25654	12.714	-17.6252	-33.2497	-2.66624	-25.1441	-54.3958	-6.78395	-33.9327	-79.1262	41.9976	18.6447	-77.6022	33.4996	19.1773	-105.06	24.254	10.7866	-126.948	74.59	12.8318	-82.9987	73.3581	10.499	-113.81	68.2652	-8.20756	-144.565	85.8215	-16.0901	-79.3067	71.5902	-37.997	-100.204	61.0044	-66.9652	-93.2982	98.1396	-28.0851	-67.7498	86.3416	-52.7582	-79.9196	64.3835	-62.7222	-64.0608	92.3669	3.74114	-27.3627	92.5838	-2.61674	5.41865	58.3022	14.173	-11.9239	
56	0.466667	31.768	-9.28984	-7.51022	12.561	-18.9509	-32.6401	0.165137	-24.5256	-56.9374	-7.14127	-33.1512	-78.0708	46.0413	17.0427	-78.6379	33.7268	18.8329	-101.747	23.782	9.22834	-128.552	76.568	11.4441	-82.0051	77.3495	8.57671	-111.309	69.4215	-8.07241	-142.097	84.2747	-15.8265	-78.7401	78.4554	-40.5262	-99.3112	63.7104	-66.8465	-92.6438	98.0932	-28.7984	-68.3231	88.9878	-53.5759	-80.1737	69.1268	-65.7631	-60.6804	94.5912	0.167518	-24.6066	94.3564	-2.61478	4.9685	63.5224	11.4879	-12.0188	
57	0.475	31.7156	-10.6463	-6.22244	12.6579	-18.4876	-34.413	-2.65858	-24.7071	-59.5143	-5.30487	-32.911	-75.7611	45.0497	16.6989	-75.6758	36.1917	18.1797	-104.043	26.7182	6.43255	-129.119	79.3108	9.3264	-82.3189	77.2415	8.01302	-114.819	72.4238	-9.24302	-141.597	88.4698	-18.2156	-78.2264	79.5391	-39.3057	-98.9817	60.0385	-65.8228	-93.6631	102.784	-32.033	-69.9935	87.9328	-50.6818	-81.0722	66.2176	-65.2479	-60.3221	92.5286	1.57753	-24.2852	95.788	-3.55843	2.40584	65.0447	10.4839	-11.5104	
